HIERARCHY
ROOT __0
{
	OFFSET 0.0 0.0 0.0
	CHANNELS 0
	JOINT hip
	{
		OFFSET 0.000000 -0.026249 1.054178
		CHANNELS 6 Xposition Yposition Zposition Xrotation Yrotation Zrotation
		JOINT spine
		{
			OFFSET 0.000000 0.011931 0.284082
			CHANNELS 3 Xrotation Yrotation Zrotation
			JOINT spine.001
			{
				OFFSET -0.000000 -0.031022 0.207850
				CHANNELS 3 Xrotation Yrotation Zrotation
				JOINT head
				{
					OFFSET 0.000000 0.045339 0.397661
					CHANNELS 3 Xrotation Yrotation Zrotation
					End Site
					{
						OFFSET 0.000000 0.000000 0.381644
					}
				}
				JOINT collar.L
				{
					OFFSET 0.000000 0.045339 0.397661
					CHANNELS 6 Xposition Yposition Zposition Xrotation Yrotation Zrotation
					JOINT shoulder.L
					{
						OFFSET -0.153096 0.000000 -0.089998
						CHANNELS 3 Xrotation Yrotation Zrotation
						JOINT UpperArm.L
						{
							OFFSET -0.183743 -0.000000 -0.064430
							CHANNELS 3 Xrotation Yrotation Zrotation
							JOINT LowerArm.L
							{
								OFFSET -0.309376 -0.063903 0.003301
								CHANNELS 3 Xrotation Yrotation Zrotation
								JOINT hand.L
								{
									OFFSET -0.294414 0.041948 -0.010574
									CHANNELS 3 Xrotation Yrotation Zrotation
									End Site
									{
										OFFSET -0.146658 -0.004199 -0.006440
									}
								}
							}
						}
					}
				}
				JOINT collar.R
				{
					OFFSET 0.000000 0.045339 0.397661
					CHANNELS 6 Xposition Yposition Zposition Xrotation Yrotation Zrotation
					JOINT shoulder.R
					{
						OFFSET 0.153096 0.000000 -0.089998
						CHANNELS 3 Xrotation Yrotation Zrotation
						JOINT UpperArm.R
						{
							OFFSET 0.183743 -0.000000 -0.064430
							CHANNELS 3 Xrotation Yrotation Zrotation
							JOINT LowerArm.R
							{
								OFFSET 0.309376 -0.063903 0.003301
								CHANNELS 3 Xrotation Yrotation Zrotation
								JOINT hand.R
								{
									OFFSET 0.294414 0.041948 -0.010574
									CHANNELS 3 Xrotation Yrotation Zrotation
									End Site
									{
										OFFSET 0.146658 -0.004199 -0.006440
									}
								}
							}
						}
					}
				}
			}
		}
		JOINT UpperLeg.L
		{
			OFFSET -0.157494 -0.002928 -0.153431
			CHANNELS 6 Xposition Yposition Zposition Xrotation Yrotation Zrotation
			JOINT LowerLeg.L
			{
				OFFSET -0.028635 0.043215 -0.458015
				CHANNELS 3 Xrotation Yrotation Zrotation
				JOINT Foot.L
				{
					OFFSET -0.021900 -0.057668 -0.375839
					CHANNELS 3 Xrotation Yrotation Zrotation
					End Site
					{
						OFFSET -0.008760 0.234651 -0.027840
					}
				}
			}
		}
		JOINT UpperLeg.R
		{
			OFFSET 0.157494 -0.002928 -0.153431
			CHANNELS 6 Xposition Yposition Zposition Xrotation Yrotation Zrotation
			JOINT LowerLeg.R
			{
				OFFSET 0.028635 0.043215 -0.458015
				CHANNELS 3 Xrotation Yrotation Zrotation
				JOINT Foot.R
				{
					OFFSET 0.021900 -0.057668 -0.375839
					CHANNELS 3 Xrotation Yrotation Zrotation
					End Site
					{
						OFFSET 0.008760 0.234651 -0.027840
					}
				}
			}
		}
	}
	JOINT IKPole.L
	{
		OFFSET -0.186129 0.631578 0.633967
		CHANNELS 6 Xposition Yposition Zposition Xrotation Yrotation Zrotation
		End Site
		{
			OFFSET 0.000000 0.335215 0.000000
		}
	}
	JOINT IKTagetLeg.L
	{
		OFFSET -0.205840 -0.043631 0.066894
		CHANNELS 6 Xposition Yposition Zposition Xrotation Yrotation Zrotation
		End Site
		{
			OFFSET 0.000000 -0.219538 0.026249
		}
	}
	JOINT IKPole.R
	{
		OFFSET 0.186129 0.631578 0.633967
		CHANNELS 6 Xposition Yposition Zposition Xrotation Yrotation Zrotation
		End Site
		{
			OFFSET 0.000000 0.335215 0.000000
		}
	}
	JOINT IKTagetLeg.R
	{
		OFFSET 0.205840 -0.043631 0.066894
		CHANNELS 6 Xposition Yposition Zposition Xrotation Yrotation Zrotation
		End Site
		{
			OFFSET 0.000000 -0.219538 0.026249
		}
	}
	JOINT IKArmPole.L
	{
		OFFSET -0.484735 -0.309871 1.764236
		CHANNELS 6 Xposition Yposition Zposition Xrotation Yrotation Zrotation
		End Site
		{
			OFFSET 0.000000 -0.320193 0.000000
		}
	}
	JOINT IKArmTarget.L
	{
		OFFSET -0.940628 -0.021955 1.782071
		CHANNELS 6 Xposition Yposition Zposition Xrotation Yrotation Zrotation
		End Site
		{
			OFFSET -0.302490 0.000000 0.000000
		}
	}
	JOINT IKArmPole.R
	{
		OFFSET 0.484735 -0.309871 1.764236
		CHANNELS 6 Xposition Yposition Zposition Xrotation Yrotation Zrotation
		End Site
		{
			OFFSET 0.000000 -0.320193 0.000000
		}
	}
	JOINT IKArmTarget.R
	{
		OFFSET 0.940628 -0.021955 1.782071
		CHANNELS 6 Xposition Yposition Zposition Xrotation Yrotation Zrotation
		End Site
		{
			OFFSET 0.302490 0.000000 0.000000
		}
	}
}
MOTION
Frames: 9
Frame Time: 0.041667
-0.030539 -0.074253 0.969517 -4.555039 -0.000001 0.000000 -2.591303 -0.174334 0.634414 -14.034630 0.064477 0.031824 5.810907 0.000002 -0.000000 0.000000 0.045339 0.397662 -0.000000 -0.000000 -0.000000 3.227771 -4.657658 47.820446 -34.093627 3.716778 -27.314237 -16.326934 -10.319096 -64.567458 22.402554 12.321060 -19.249717 0.000000 0.045339 0.397662 -15.168535 5.423088 -24.169642 19.486729 -23.186102 46.083112 -13.760406 30.684287 49.638980 -5.287451 8.266566 79.585453 21.139029 -14.877653 10.758315 -0.157494 -0.002928 -0.153431 48.859495 4.759158 14.917154 -19.314262 -0.521586 1.099052 15.963986 1.644180 -3.200516 0.157494 -0.002928 -0.153431 -45.444985 -14.020368 -11.203772 -39.348481 1.414940 -1.990599 -26.210574 -15.395216 19.910087 -0.377701 0.611920 0.631169 -0.000000 0.000000 -0.000000 -0.263300 0.360036 0.151320 40.700558 3.965812 13.863498 0.117319 0.632319 0.633967 -0.000000 0.000000 -0.000000 0.291436 -0.776511 0.558086 -117.954129 -10.681198 -1.699463 -0.904182 -1.313521 2.225967 -0.000000 0.000000 -0.000000 -0.640038 -0.169678 1.426214 -33.095361 -45.856230 -54.828831 1.003644 0.203371 1.504627 -0.000000 0.000000 -0.000000 0.232385 0.315883 1.428858 -67.107975 21.471108 147.556156 
-0.015269 -0.055701 0.924656 -4.555039 -0.000001 0.000000 -2.591303 -0.174334 0.634414 -14.034630 0.064477 0.031824 5.810907 0.000002 -0.000000 0.000000 0.045339 0.397662 -0.000000 -0.000000 -0.000000 0.029350 -3.272254 35.951373 -32.628285 -8.973275 -39.740793 -15.518760 -9.747430 -57.392051 44.700542 14.333505 -23.756004 0.000000 0.045339 0.397662 -15.168535 5.423088 -24.169642 15.721163 -20.186202 40.882828 -20.968944 24.706942 49.962745 -4.290858 7.874914 71.547816 35.486600 -14.699110 24.989456 -0.157494 -0.002928 -0.153431 47.990261 4.813657 10.282290 -35.333378 -1.211736 1.837816 16.042632 1.325505 -6.465803 0.157494 -0.002929 -0.153431 -29.450085 -11.739829 -6.821946 -64.385755 2.869086 -2.590458 -9.105136 -9.610746 17.434492 -0.329348 0.622120 0.632568 -0.000000 0.000000 -0.000000 -0.234570 0.266246 0.087780 24.290221 0.975013 7.210860 0.151824 0.631949 0.633691 -0.000000 0.000000 -0.000000 0.248638 -0.650226 0.489921 -108.263969 -5.365865 -0.391507 -0.904058 -1.228975 2.208310 -0.000000 0.000000 -0.000000 -0.614644 -0.025646 1.286209 -7.377841 -60.880119 -46.263699 0.968252 0.148930 1.530666 -0.000000 0.000000 -0.000000 0.314446 0.300838 1.328427 -74.774486 33.891808 148.398004 
-0.000000 -0.037148 0.879795 -4.555039 -0.000000 0.000000 -2.591303 -0.174334 0.634414 -14.034630 0.064477 0.031824 5.810907 0.000002 -0.000000 0.000000 0.045339 0.397662 0.000001 -0.000000 0.000000 -5.788296 2.612252 5.852383 -20.652352 -33.966654 -40.823358 -14.355099 -8.589183 -45.481485 65.063221 10.752950 -34.565159 0.000000 0.045339 0.397662 -15.168537 5.423087 -24.169640 8.406310 -12.697383 28.947455 -26.038484 15.621756 49.381619 -2.837450 6.970832 58.687198 51.612731 -3.953383 32.000191 -0.157494 -0.002928 -0.153431 38.177571 4.223001 5.991572 -54.467159 -2.262799 2.429595 16.537266 1.677910 -10.276504 0.157494 -0.002928 -0.153431 6.543221 -6.295827 -1.330798 -95.971616 4.830839 -2.387018 11.235648 -2.714930 11.258518 -0.271566 0.632319 0.633967 -0.000000 0.000000 -0.000000 -0.205840 0.046165 0.039340 -4.188125 -0.000000 -0.000000 0.195157 0.631578 0.633967 -0.000000 0.000000 -0.000000 0.205840 -0.364726 0.358503 -82.599008 0.000000 0.000000 -0.902370 -1.010934 2.161685 -0.000000 0.000000 -0.000000 -0.555743 0.214624 1.146448 39.302698 -77.515530 -19.684289 0.876962 0.007439 1.599139 -0.000000 0.000000 -0.000000 0.439330 0.250024 1.227904 -84.987252 52.593710 145.366629 
0.000000 -0.047686 0.918881 -4.555039 -0.000000 0.000000 -2.591303 -0.174334 0.634414 -14.034630 0.064477 0.031824 5.810907 0.000002 -0.000000 -0.000000 0.045339 0.397661 0.000001 -0.000000 0.000000 -6.921679 10.971667 -29.294514 6.485858 -38.029377 5.838478 -17.227923 -10.798115 -71.962019 35.443651 14.567380 -34.666810 0.000000 0.045339 0.397661 -15.168537 5.423087 -24.169640 2.550771 -4.164161 14.679256 -25.899717 13.405068 55.553914 -1.782774 5.958359 47.720363 44.256419 0.011098 20.506646 -0.157494 -0.002928 -0.153431 15.748784 3.742413 5.640783 -51.343679 -2.078619 2.357494 19.579687 0.196076 -9.724391 0.157494 -0.002928 -0.153431 46.323999 -3.344128 1.300920 -91.367946 4.556631 -2.483895 4.597510 -1.294351 6.545243 -0.255291 0.632298 0.633967 -0.000000 0.000000 -0.000000 -0.205840 -0.221140 0.076750 -20.320489 -0.000000 0.000005 0.210127 0.631578 0.635059 -0.000000 0.000000 -0.000000 0.205840 -0.050947 0.256141 -44.985340 0.000007 -0.000026 -0.897143 -0.712797 2.095610 -0.000000 0.000000 -0.000000 -0.483434 0.327997 1.236096 123.473196 -121.401353 50.740789 0.752107 -0.188351 1.695579 -0.000000 0.000000 -0.000000 0.482675 0.160582 1.234497 -76.028939 59.998260 122.422303 
-0.000000 -0.058946 0.994234 -4.555039 -0.000000 0.000000 -2.591303 -0.174334 0.634414 -14.034630 0.064477 0.031824 5.810907 0.000002 -0.000000 -0.000000 0.045339 0.397662 0.000001 -0.000000 0.000000 -3.372664 13.942065 -54.167727 10.331862 -31.504661 36.405294 -20.745907 -11.507982 -98.141711 50.641601 54.449845 -41.559854 0.000000 0.045339 0.397661 -15.168537 5.423087 -24.169640 0.000000 -0.000003 0.000002 -29.224791 23.941234 67.332312 -0.773663 4.452191 34.137747 19.996629 1.314637 13.941173 -0.157494 -0.002928 -0.153431 -12.170814 1.652634 6.677715 -23.457667 -0.679830 1.308177 11.473715 -0.874450 -8.428383 0.157494 -0.002928 -0.153431 53.383471 -1.870744 -0.918650 -55.414704 2.319403 -2.449472 -4.513277 -1.953782 4.328115 -0.243596 0.632242 0.633967 -0.000000 0.000000 -0.000000 -0.205840 -0.455185 0.142879 -28.473286 -0.000000 -0.000000 0.220393 0.631578 0.636123 -0.000000 0.000000 -0.000000 0.205840 0.196569 0.205919 -11.151469 0.000000 0.000000 -0.886403 -0.387961 2.019602 -0.000000 0.000000 -0.000000 -0.394525 0.348796 1.386026 176.867680 -120.541542 91.427772 0.616020 -0.405690 1.805521 -0.000000 0.000000 -0.000000 0.496428 0.050774 1.281958 -58.893101 57.622467 93.381827 
0.000000 -0.059588 1.054195 -4.555039 -0.000000 0.000000 -2.591303 -0.174334 0.634414 -14.034630 0.064477 0.031824 5.810907 0.000002 -0.000000 0.000000 0.045339 0.397662 0.000001 -0.000000 0.000000 -0.686490 12.784724 -66.219039 5.546932 -32.181464 34.087842 -22.088535 -11.361290 -107.919168 -12.112796 18.163122 -12.762656 0.000000 0.045339 0.397662 -15.168537 5.423087 -24.169640 0.233942 -0.169843 -14.240932 -30.116920 32.878154 64.472211 -1.045080 4.940072 38.307502 1.457877 2.131212 10.946056 -0.157494 -0.002929 -0.153431 -27.978661 2.140454 7.161252 -9.969445 -0.222863 0.589327 5.240823 -0.991475 -8.434688 0.157494 -0.002928 -0.153431 55.904562 -1.493961 -2.611422 -38.314588 1.361592 -1.952612 -5.307638 -3.634486 5.676475 -0.235595 0.632159 0.633967 -0.000000 0.000000 -0.000000 -0.226298 -0.584738 0.258677 -37.034426 1.716416 -0.244873 0.226958 0.631578 0.637155 -0.000000 0.000000 -0.000000 0.205011 0.336215 0.268908 7.607824 -1.091837 0.887328 -0.868175 -0.089824 1.943180 -0.000000 0.000000 -0.000000 -0.288061 0.360376 1.460724 126.573309 -175.168357 30.983545 0.491031 -0.611831 1.914499 -0.000000 0.000000 -0.000000 0.542917 -0.056278 1.402358 -45.281767 52.513114 72.068181 
0.000000 -0.059267 1.089564 -4.555039 -0.000000 0.000000 -2.591303 -0.174334 0.634414 -14.034630 0.064477 0.031824 5.810907 0.000002 -0.000000 -0.000000 0.045339 0.397661 0.000001 -0.000000 0.000000 0.175402 12.019842 -72.045430 0.988820 -28.140468 17.438161 -21.749733 -11.419887 -105.432446 22.002274 46.010152 -19.340020 0.000000 0.045339 0.397661 -15.168537 5.423087 -24.169640 1.781395 -0.810349 -25.418078 -24.404491 32.084810 54.537367 -1.546338 5.668997 44.924169 -3.258238 6.597387 12.397347 -0.157494 -0.002929 -0.153431 -27.583862 6.462596 6.906430 -27.771240 -0.860191 1.513175 11.643220 -0.495967 -10.799598 0.157494 -0.002928 -0.153431 70.332036 -2.304078 -3.011588 -50.598721 2.035274 -2.338818 -0.217890 -6.424513 8.863735 -0.230404 0.632058 0.633967 -0.000000 0.000000 -0.000000 -0.264293 -0.635488 0.396024 -47.914528 4.925915 -0.230576 0.230827 0.631578 0.638153 -0.000000 0.000000 -0.000000 0.203471 0.401290 0.409117 14.630948 -2.948007 2.712004 -0.840483 0.128217 1.875861 -0.000000 0.000000 -0.000000 -0.195329 0.385688 1.484556 117.941562 -145.789841 22.953933 0.399474 -0.774022 2.008046 -0.000000 0.000000 -0.000000 0.603674 -0.137473 1.540518 -36.426741 47.861116 59.272368 
-0.000000 -0.058946 1.101170 -4.555039 -0.000000 0.000000 -2.591303 -0.174334 0.634414 -14.034630 0.064477 0.031824 5.810907 0.000002 -0.000000 0.000000 0.045339 0.397662 0.000001 -0.000000 0.000000 -0.063935 12.037653 -73.769588 1.746824 -18.222542 10.113502 -21.035835 -11.495492 -100.239767 80.171715 56.962637 -60.563192 0.000000 0.045339 0.397661 -15.168537 5.423087 -24.169640 2.687877 -1.275604 -29.947016 -20.563944 29.161271 51.449455 -1.441964 5.531457 43.632806 -2.317274 9.778314 16.115275 -0.157494 -0.002929 -0.153431 -28.122395 9.783450 6.977637 -41.236769 -1.514107 2.057446 11.477861 0.717000 -13.580075 0.157494 -0.002928 -0.153431 78.849343 -3.109371 -3.451791 -59.112856 2.543293 -2.518016 1.274734 -8.313798 10.905966 -0.227138 0.631949 0.633967 -0.000000 0.000000 -0.000000 -0.284751 -0.658762 0.502775 -62.166872 6.695401 0.521413 0.233004 0.631578 0.639111 -0.000000 0.000000 -0.000000 0.202642 0.418703 0.486722 15.935390 -3.939776 3.708091 -0.801354 0.212763 1.827163 -0.000000 0.000000 -0.000000 -0.155675 0.432642 1.498352 104.916132 -117.663382 8.202934 0.363680 -0.859514 2.071697 -0.000000 0.000000 -0.000000 0.640038 -0.169678 1.606548 -33.095361 45.856230 54.828831 
-0.000000 -0.055362 1.100655 -4.555039 -0.000000 0.000000 -2.591303 -0.174334 0.634414 -14.034630 0.064477 0.031824 5.810907 0.000002 -0.000000 -0.000000 0.045339 0.397662 0.000001 -0.000000 0.000000 0.033522 15.520133 -72.702180 12.137786 -10.017167 10.232939 -20.297502 -11.506853 -94.899413 77.878281 52.308580 -46.855518 0.000000 0.045339 0.397661 -15.168537 5.423087 -24.169640 2.777690 -1.207912 -28.711370 -20.929887 26.304665 50.861864 -1.326312 5.371117 42.154664 4.875460 10.261981 19.837991 -0.157494 -0.002929 -0.153431 -33.067838 9.732919 8.022970 -42.918115 -1.604214 2.114193 -0.408229 3.753360 -14.658477 0.157494 -0.002928 -0.153431 77.474166 -3.171303 -3.777866 -57.543114 2.447724 -2.490689 1.540121 -7.893003 10.795799 -0.224911 0.631839 0.633967 -0.000000 0.000000 -0.000000 -0.276544 -0.692464 0.564459 -80.994446 5.984729 1.478108 0.234495 0.631578 0.640027 -0.000000 0.000000 -0.000000 0.202974 0.421408 0.475449 16.416711 -3.517804 3.338864 -0.747376 0.180895 1.797527 -0.000000 0.000000 -0.000000 -0.156390 0.505069 1.529005 110.194597 -116.989816 13.316248 0.411272 -0.888978 2.107898 -0.000000 0.000000 -0.000000 0.649212 -0.168696 1.605949 -29.536419 49.412276 55.344330 
